/* XPM */
static char *c88840998f034f18dedd94ede3891bafUya61u7507n9b2bE[] = {
/* columns rows colors chars-per-pixel */
"32 32 10 1 ",
"  c None",
". c #BF1C19",
"X c #BF1C1A",
"o c #C11B17",
"O c #C01B18",
"+ c #C01C18",
"@ c #C01C19",
"# c #1B85F7",
"$ c #1589FF",
"% c #C0C0C0",
/* pixels */
"            %%%%%%%%            ",
"         %%  %%  %%  %%         ",
"       %%  %%      %%  %%       ",
"      %  %%          %%  %      ",
"     % %%              %% %     ",
"    %%%                  %%%    ",
"   %%                      %%   ",
" %%     $$$          ...     %% ",
"% %     $$$$        @oooo    % %",
"%%      $$$$        @oooo     %%",
"%%      $$$$        .Oooo     %%",
"%       $$$$        @Oooo      %",
"%       $$$$        @OOoo      %",
"%       $$$$        @Oooo      %",
"%       $$$$        .Oooo      %",
"%       $$$$        .oooo      %",
"%       $$$$        @OOoo      %",
"%       $$$$        @oooo      %",
"%       $$$$        @Oooo      %",
"%       $$$$        @ooo@      %",
"%       $$$$        @Ooo@      %",
"%%      $$$$        OOoo      %%",
"%%      $$$$$      @oooO      %%",
"% %     $$$$$$    @Oooo@     % %",
" %%      $$$$$$#oooooo@      %% ",
"   %%     $$$$$#ooooo@     %%   ",
"    %%%     $$$#oo@.     %%%    ",
"     % %%              %% %     ",
"      %  %%          %%  %      ",
"       %%  %%      %%  %%       ",
"         %%  %%  %%  %%         ",
"            %%%%%%%%            "
};
