/* XPM */
static char *_6dd906298df43b7bc7b989a77010199xanYsDRlrufjWpaA[] = {
/* columns rows colors chars-per-pixel */
"128 128 25 1 ",
"  c None",
". c #BF1C19",
"X c #BF1C1A",
"o c #BE1D1A",
"O c #BE1D1B",
"+ c #BB1F1F",
"@ c #BD1D1C",
"# c #BE1D1C",
"$ c #BD1E1C",
"% c #BD1E1D",
"& c #BC1E1E",
"* c #BA1F20",
"= c #BB1F20",
"- c #B92021",
"; c #BA2020",
": c #BA2021",
"> c #B82123",
", c #C11B17",
"< c #C01B18",
"1 c #C11B18",
"2 c #C01C18",
"3 c #C01C19",
"4 c #2D79DE",
"5 c #1589FF",
"6 c #C0C0C0",
/* pixels */
"                                                        6666666666666666                                                        ",
"                                                  6666666666666666666666666666                                                  ",
"                                              666666666666666666666666666666666666                                              ",
"                                           666666666666 6666666  6666666 666666666666                                           ",
"                                        6666666666     666666      666666     6666666666                                        ",
"                                      66666666       666666          666666       66666666                                      ",
"                                    6666666        666666              666666        6666666                                    ",
"                                  6666666        666666                  666666        6666666                                  ",
"                                666666         666666                      666666         666666                                ",
"                              666666         666666                          666666         666666                              ",
"                             66666         666666                              666666         66666                             ",
"                           666666        666666                                  666666        666666                           ",
"                          66666        666666                                      666666        66666                          ",
"                         66666       666666                                          666666       66666                         ",
"                       66666       666666                                              666666       66666                       ",
"                      66666      666666                                                  666666      66666                      ",
"                     6666      666666                                                      666666     66666                     ",
"                    6666     666666                                                          666666     6666                    ",
"                   6666    666666                                                              666666    6666                   ",
"                  6666   666666                                                                  666666   6666                  ",
"                 6666  666666                                                                      666666  6666                 ",
"                6666 666666                                                                          666666 6666                ",
"               6666666666                                                                              6666666666               ",
"              666666666                                                                                  666666666              ",
"              6666666                                                                                      6666666              ",
"             666666                                                                                          666666             ",
"           666666                                                                                              666666           ",
"         666666                                                                                                  666666         ",
"       6666666                                                                                                    6666666       ",
"     666666666                5555555555555555                                    ;&&&&&&&&&&&&&&&                666666666     ",
"   6666666666                 5555555555555555                                    X,,,,,,,,,,,,,,,                 6666666666   ",
" 666666  666                  5555555555555555                                    X,,,,,,,,,,,,,,,                  666  666666 ",
"66666   6666                  5555555555555555                                    X,,,,,,,,,,,,,,,                  6666   66666",
"666     666                   5555555555555555                                    X,,,,,,,,,,,,,,,                   666     666",
"666    666                    5555555555555555                                    X,,,,,,,,,,,,,,,                    666    666",
"666    666                    5555555555555555                                    X,,,,,,,,,,,,,,,                    666    666",
"666   666                     5555555555555555                                    X,,,,,,,,,,,,,,,                     666   666",
"666   666                     5555555555555555                                    X,,,,,,,,,,,,,,,                     666   666",
"666  666                      5555555555555555                                    X,,,,,,,,,,,,,,,                      666  666",
"666  666                      5555555555555555                                    X,,,,,,,,,,,,,,,                      666  666",
"666 6666                      5555555555555555                                    X,,,,,,,,,,,,,,,                      6666 666",
"666 666                       5555555555555555                                    X,,,,,,,,,,,,,,,                       666 666",
"666 666                       5555555555555555                                    X,,,,,,,,,,,,,,,                       666 666",
"666666                        5555555555555555                                    X,,,,,,,,,,,,,,,                        666666",
"666666                        5555555555555555                                    X,,,,,,,,,,,,,,,                        666666",
"666666                        5555555555555555                                    X,,,,,,,,,,,,,,,                        666666",
"66666                         5555555555555555                                    X,,,,,,,,,,,,,,,                         66666",
"66666                         5555555555555555                                    X,,,,,,,,,,,,,,,                         66666",
"66666                         5555555555555555                                    X,,,,,,,,,,,,,,,                         66666",
"66666                         5555555555555555                                    X,,,,,,,,,,,,,,,                         66666",
"6666                          5555555555555555                                    X,,,,,,,,,,,,,,,                          6666",
"6666                          5555555555555555                                    X,,,,,,,,,,,,,,,                          6666",
"6666                          5555555555555555                                    X,,,,,,,,,,,,,,,                          6666",
"6666                          5555555555555555                                    X,,,,,,,,,,,,,,,                          6666",
"6666                          5555555555555555                                    X,,,,,,,,,,,,,,,                          6666",
"666                           5555555555555555                                    X,,,,,,,,,,,,,,,                           666",
"666                           5555555555555555                                    X,,,,,,,,,,,,,,,                           666",
"666                           5555555555555555                                    X,,,,,,,,,,,,,,,                           666",
"666                           5555555555555555                                    X,,,,,,,,,,,,,,,                           666",
"666                           5555555555555555                                    X,,,,,,,,,,,,,,,                           666",
"666                           5555555555555555                                    X,,,,,,,,,,,,,,,                           666",
"666                           5555555555555555                                    X,,,,,,,,,,,,,,,                           666",
"666                           5555555555555555                                    X,,,,,,,,,,,,,,,                           666",
"666                           5555555555555555                                    X,,,,,,,,,,,,,,,                           666",
"666                           5555555555555555                                    X,,,,,,,,,,,,,,,                           666",
"666                           5555555555555555                                    X,,,,,,,,,,,,,,,                           666",
"666                           5555555555555555                                    X,,,,,,,,,,,,,,,                           666",
"666                           5555555555555555                                    X,,,,,,,,,,,,,,,                           666",
"666                           5555555555555555                                    X,,,,,,,,,,,,,,,                           666",
"666                           5555555555555555                                    X,,,,,,,,,,,,,,,                           666",
"666                           5555555555555555                                    X,,,,,,,,,,,,,,,                           666",
"666                           5555555555555555                                    X,,,,,,,,,,,,,,,                           666",
"666                           5555555555555555                                    X,,,,,,,,,,,,,,,                           666",
"6666                          5555555555555555                                    X,,,,,,,,,,,,,,,                          6666",
"6666                          5555555555555555                                    X,,,,,,,,,,,,,,,                          6666",
"6666                          5555555555555555                                    X,,,,,,,,,,,,,,,                          6666",
"6666                          5555555555555555                                    2,,,,,,,,,,,,,,,                          6666",
"6666                          5555555555555555                                    1,,,,,,,,,,,,,,,                          6666",
"66666                         5555555555555555                                    ,,,,,,,,,,,,,,,,                         66666",
"66666                         5555555555555555                                    ,,,,,,,,,,,,,,,,                         66666",
"66666                         55555555555555555                                   ,,,,,,,,,,,,,,,,                         66666",
"66666                         55555555555555555                                  >,,,,,,,,,,,,,,,,                         66666",
"666666                        55555555555555555                                  &,,,,,,,,,,,,,,,,                        666666",
"666666                        55555555555555555                                  &,,,,,,,,,,,,,,,&                        666666",
"666666                        55555555555555555                                  ,,,,,,,,,,,,,,,,&                        666666",
"666 666                        55555555555555555                                &,,,,,,,,,,,,,,,,+                       666 666",
"666 666                        55555555555555555                                21,,,,,,,,,,,,,,,                        666 666",
"666 6666                       55555555555555555                               ;11,,,,,,,,,,,,,,1                       6666 666",
"666  666                       555555555555555555                              2,,,,,,,,,,,,,,,,&                       666  666",
"666  666                        555555555555555555                            &,,,,,,,,,,,,,,,,,                        666  666",
"666   666                       555555555555555555                           +,,,,,,,,,,,,,,,,12                       666   666",
"666   666                       5555555555555555555                         +,,,,,,,,,,,,,,,,,,+                       666   666",
"666    666                       55555555555555555555                      &,,,,,,,,,,,,,,,,,,1                       666    666",
"666    666                       555555555555555555555                   ;2,,,,,,,,,,,,,,,,,,,=                       666    666",
"666     666                       5555555555555555555555               +2,,,,,,,,,,,,,,,,,,,,X                       666     666",
"66666   6666                      555555555555555555555555555     =+&2,,11,,,,,,,,,,,,,,,,,,,                       6666   66666",
" 666666  666                       55555555555555555555555555554,,,,,,,,,,,,,,,,,,,,,,,,,,,,&                       666  666666 ",
"   6666666666                       5555555555555555555555555554,,,,,,,,,,,,,,,,,,,,,,,,,,,&                       6666666666   ",
"     666666666                       555555555555555555555555554,,,,,,,,,,,,,,,,,,,,,,,,,,X                       666666666     ",
"       6666666                       555555555555555555555555554,,,,,,,,,,,,,,,,,,,,,,,,,X                        6666666       ",
"         666666                       55555555555555555555555554,,,,,,,,,,,,,,,,,,,,,,,,X                        666666         ",
"           666666                       555555555555555555555554,,,,,,,,,,,,,,,,,,,,,2,+                       666666           ",
"             666666                      55555555555555555555554,,,,,,,,,,,,,,,,,,,,,2                       666666             ",
"              6666666                     5555555555555555555554,,,,,,,,,,,,,,,,,,,,;                      6666666              ",
"              666666666                     55555555555555555554,,,,,,,,,,,,,,11,,&                      666666666              ",
"               6666666666                     555555555555555554,,,,,,,,,,,,,,12;                      6666666666               ",
"                6666 666666                      555555555555554,,,,,,,,2,,2X;                       666666 6666                ",
"                 6666  666666                        55555555554,,,,,,XX&&                         666666  6666                 ",
"                  6666   666666                                 ;                                666666   6666                  ",
"                   6666    666666                                                              666666    6666                   ",
"                    6666     666666                                                          666666     6666                    ",
"                     66666     666666                                                      666666     66666                     ",
"                      66666      666666                                                  666666      66666                      ",
"                       66666       666666                                              666666       66666                       ",
"                         66666       666666                                          666666       66666                         ",
"                          66666        666666                                      666666        66666                          ",
"                           666666        666666                                  666666        666666                           ",
"                             66666         666666                              666666         66666                             ",
"                              666666         666666                          666666         666666                              ",
"                                666666         666666                      666666         666666                                ",
"                                  6666666        666666                  666666        6666666                                  ",
"                                    6666666        666666              666666        6666666                                    ",
"                                      66666666       666666          666666       66666666                                      ",
"                                        6666666666     666666      666666     6666666666                                        ",
"                                           666666666666 6666666  6666666 666666666666                                           ",
"                                              666666666666666666666666666666666666                                              ",
"                                                  6666666666666666666666666666                                                  ",
"                                                        6666666666666666                                                        "
};
