/* XPM */
static char *_7052abcabd04195e4b88c31ee142155WX4owyyYixroJAx3[] = {
/* columns rows colors chars-per-pixel */
"64 64 12 1 ",
"  c None",
". c #BF1C1A",
"X c #BE1D1B",
"o c #BD1E1C",
"O c #C11B17",
"+ c #C01B18",
"@ c #C11B18",
"# c #C01C18",
"$ c #C01C19",
"% c #1589FF",
"& c #2181EF",
"* c #C0C0C0",
/* pixels */
"                          ************                          ",
"                      ********************                      ",
"                    ****   ***    ***   ****                    ",
"                 ****    ***        ***    ****                 ",
"                ***    ***            ***    ***                ",
"              ***    ***                ***    ***              ",
"             **    ***                    ***    **             ",
"           ***   ***                        ***   ***           ",
"          **   ***                            ***   **          ",
"         **  ***                                ***  **         ",
"        ******                                    ******        ",
"       *****                                        *****       ",
"       ***                                            ***       ",
"     ***                                                ***     ",
"   ****                                                  ****   ",
" *****         %%%%%%%%                  #OOOOOOO         ***** ",
"**  **         %%%%%%%%                  #OOOOOOO         **  **",
"*  **          %%%%%%%%                  #OOOOOOO          **  *",
"*  **          %%%%%%%%                  #OOOOOOO          **  *",
"*  *           %%%%%%%%                  #OOOOOOO           *  *",
"* **           %%%%%%%%                  #OOOOOOO           ** *",
"***            %%%%%%%%                  #OOOOOOO            ***",
"***            %%%%%%%%                  #OOOOOOO            ***",
"***            %%%%%%%%                  #OOOOOOO            ***",
"**             %%%%%%%%                  #OOOOOOO             **",
"**             %%%%%%%%                  #OOOOOOO             **",
"**             %%%%%%%%                  #OOOOOOO             **",
"**             %%%%%%%%                  #OOOOOOO             **",
"**             %%%%%%%%                  #OOOOOOO             **",
"**             %%%%%%%%                  #OOOOOOO             **",
"*              %%%%%%%%                  #OOOOOOO              *",
"*              %%%%%%%%                  #OOOOOOO              *",
"*              %%%%%%%%                  #OOOOOOO              *",
"*              %%%%%%%%                  #OOOOOOO              *",
"**             %%%%%%%%                  #OOOOOOO             **",
"**             %%%%%%%%                  #OOOOOOO             **",
"**             %%%%%%%%                  #OOOOOOO             **",
"**             %%%%%%%%                  #OOOOOOO             **",
"**             %%%%%%%%                  OOOOOOOO             **",
"**             %%%%%%%%                  OOOOOOOO             **",
"***            %%%%%%%%                  OOOOOOOO            ***",
"***            %%%%%%%%                  OOOOOOO#            ***",
"***            %%%%%%%%%                XOOOOOOO#            ***",
"* **           %%%%%%%%%                @OOOOOOOo           ** *",
"*  *            %%%%%%%%%              XOOOOOOOO            *  *",
"*  **           %%%%%%%%%             oOOOOOOOO#           **  *",
"*  **           %%%%%%%%%%%          XOOOOOOOOO            **  *",
"**  **           %%%%%%%%%%%%      XOOOOOOOOOOX           **  **",
" *****            %%%%%%%%%%%%%&OOOOOOOOOOOO@@            ***** ",
"   ****           %%%%%%%%%%%%%&OOOOOOOOOOO@@            ****   ",
"     ***            %%%%%%%%%%%&OOOOOOOOOOO#            ***     ",
"       ***           %%%%%%%%%%&OOOOOOOOOOX           ***       ",
"       *****           %%%%%%%%&OOOOOOO@X           *****       ",
"        ******           %%%%%%&OOO#XX            ******        ",
"         **  ***                                ***  **         ",
"          **   ***                            ***   **          ",
"           ***   ***                        ***   ***           ",
"             **    ***                    ***    **             ",
"              ***    ***                ***    ***              ",
"                ***    ***            ***    ***                ",
"                 ****    ***        ***    ****                 ",
"                    ****   ***    ***   ****                    ",
"                      ********************                      ",
"                          ************                          "
};
